<svg xmlns="http://www.w3.org/2000/svg" viewBox="0 0 1100 820" width="1100" height="820">
<rect width="1100" height="820" fill="#ffffff"/>
<!-- header line -->
<rect x="0" y="0" width="1100" height="4" fill="#4a90d9"/>
<text x="20" y="30" font-family="Georgia,'Times New Roman',serif" font-size="16" font-weight="bold" fill="#333333">Figure 1: AI-Script-Game System Architecture</text>
<line x1="20" y1="38" x2="1080" y2="38" stroke="#e0e0e0" stroke-width="0.5"/><rect x="30" y="55" width="160" height="22" rx="3" fill="#e8f0fe" stroke="#4a90d9" stroke-width="0.8"/>
<text x="110" y="70" text-anchor="middle" font-family="'Helvetica Neue',Arial,sans-serif" font-size="9" font-weight="bold" fill="#2b6cb0">USER INTERFACE</text><rect x="220" y="52" width="180" height="40" rx="4" fill="#e8f0fe" stroke="#4a90d9" stroke-width="1"/>
<text x="310" y="69" text-anchor="middle" font-family="'Helvetica Neue',Arial,sans-serif" font-size="10" font-weight="bold" fill="#333333">React User Portal</text>
<text x="310" y="85" text-anchor="middle" font-family="'Helvetica Neue',Arial,sans-serif" font-size="8" fill="#666666">user-portal · React 18 + Vite</text><rect x="420" y="52" width="180" height="40" rx="4" fill="#e8f0fe" stroke="#4a90d9" stroke-width="1"/>
<text x="510" y="69" text-anchor="middle" font-family="'Helvetica Neue',Arial,sans-serif" font-size="10" font-weight="bold" fill="#333333">Vue 3 Admin Portal</text>
<text x="510" y="85" text-anchor="middle" font-family="'Helvetica Neue',Arial,sans-serif" font-size="8" fill="#666666">admin-portal · Vue 3 + Element</text><line x1="300" y1="92" x2="300" y2="104" stroke="#4a90d9" stroke-width="1.2" fill="none"/><polygon points="300,112 305,102 295,102" fill="#4a90d9"/><line x1="510" y1="92" x2="510" y2="104" stroke="#4a90d9" stroke-width="1.2" fill="none"/><polygon points="510,112 515,102 505,102" fill="#4a90d9"/><rect x="30" y="115" width="160" height="22" rx="3" fill="#fef5e7" stroke="#4a90d9" stroke-width="0.8"/>
<text x="110" y="130" text-anchor="middle" font-family="'Helvetica Neue',Arial,sans-serif" font-size="9" font-weight="bold" fill="#2b6cb0">GATEWAY</text><rect x="300" y="140" width="200" height="36" rx="4" fill="#fef5e7" stroke="#2b6cb0" stroke-width="1.2"/>
<text x="400" y="158" text-anchor="middle" font-family="'Helvetica Neue',Arial,sans-serif" font-size="11" font-weight="bold" fill="#333333">Nginx API Gateway</text>
<text x="400" y="172" text-anchor="middle" font-family="'Helvetica Neue',Arial,sans-serif" font-size="9" fill="#666666">Load Balancer · Reverse Proxy</text><rect x="530" y="140" width="200" height="36" rx="4" fill="#fef5e7" stroke="#2b6cb0" stroke-width="1.2"/>
<text x="630" y="158" text-anchor="middle" font-family="'Helvetica Neue',Arial,sans-serif" font-size="11" font-weight="bold" fill="#333333">Socket.IO Gateway</text>
<text x="630" y="172" text-anchor="middle" font-family="'Helvetica Neue',Arial,sans-serif" font-size="9" fill="#666666">WebSocket · Realtime</text><line x1="400" y1="176" x2="400" y2="188" stroke="#f0ad4e" stroke-width="1.2" fill="none"/><polygon points="400,196 405,186 395,186" fill="#f0ad4e"/><line x1="630" y1="176" x2="630" y2="188" stroke="#f0ad4e" stroke-width="1.2" fill="none"/><polygon points="630,196 635,186 625,186" fill="#f0ad4e"/><rect x="30" y="200" width="160" height="22" rx="3" fill="#eaf7ea" stroke="#4a90d9" stroke-width="0.8"/>
<text x="110" y="215" text-anchor="middle" font-family="'Helvetica Neue',Arial,sans-serif" font-size="9" font-weight="bold" fill="#2b6cb0">BUSINESS SERVICES</text><rect x="50" y="228" width="145" height="46" rx="4" fill="#eaf7ea" stroke="#2b6cb0" stroke-width="1.2"/>
<text x="122.5" y="246" text-anchor="middle" font-family="'Helvetica Neue',Arial,sans-serif" font-size="11" font-weight="bold" fill="#333333">🔐 Auth</text>
<text x="122.5" y="260" text-anchor="middle" font-family="'Helvetica Neue',Arial,sans-serif" font-size="9" fill="#666666">Authentication</text><rect x="210" y="228" width="145" height="46" rx="4" fill="#eaf7ea" stroke="#2b6cb0" stroke-width="1.2"/>
<text x="282.5" y="246" text-anchor="middle" font-family="'Helvetica Neue',Arial,sans-serif" font-size="11" font-weight="bold" fill="#333333">👤 User</text>
<text x="282.5" y="260" text-anchor="middle" font-family="'Helvetica Neue',Arial,sans-serif" font-size="9" fill="#666666">User Management</text><rect x="370" y="228" width="145" height="46" rx="4" fill="#eaf7ea" stroke="#2b6cb0" stroke-width="1.2"/>
<text x="442.5" y="246" text-anchor="middle" font-family="'Helvetica Neue',Arial,sans-serif" font-size="11" font-weight="bold" fill="#333333">📖 Novel</text>
<text x="442.5" y="260" text-anchor="middle" font-family="'Helvetica Neue',Arial,sans-serif" font-size="9" fill="#666666">Novel CRUD</text><rect x="530" y="228" width="145" height="46" rx="4" fill="#eaf7ea" stroke="#2b6cb0" stroke-width="1.2"/>
<text x="602.5" y="246" text-anchor="middle" font-family="'Helvetica Neue',Arial,sans-serif" font-size="11" font-weight="bold" fill="#333333">🎬 Script</text>
<text x="602.5" y="260" text-anchor="middle" font-family="'Helvetica Neue',Arial,sans-serif" font-size="9" fill="#666666">Novel→Script</text><rect x="690" y="228" width="145" height="46" rx="4" fill="#eaf7ea" stroke="#2b6cb0" stroke-width="1.2"/>
<text x="762.5" y="246" text-anchor="middle" font-family="'Helvetica Neue',Arial,sans-serif" font-size="11" font-weight="bold" fill="#333333">🎮 Game</text>
<text x="762.5" y="260" text-anchor="middle" font-family="'Helvetica Neue',Arial,sans-serif" font-size="9" fill="#666666">Game Engine</text><rect x="850" y="228" width="145" height="46" rx="4" fill="#eaf7ea" stroke="#2b6cb0" stroke-width="1.2"/>
<text x="922.5" y="246" text-anchor="middle" font-family="'Helvetica Neue',Arial,sans-serif" font-size="11" font-weight="bold" fill="#333333">🤖 AI Model</text>
<text x="922.5" y="260" text-anchor="middle" font-family="'Helvetica Neue',Arial,sans-serif" font-size="9" fill="#666666">OpenAI/Claude/DeepSeek</text><rect x="130" y="294" width="220" height="46" rx="4" fill="#eaf7ea" stroke="#2b6cb0" stroke-width="1.2"/>
<text x="240" y="312" text-anchor="middle" font-family="'Helvetica Neue',Arial,sans-serif" font-size="11" font-weight="bold" fill="#333333">👥 Social</text>
<text x="240" y="326" text-anchor="middle" font-family="'Helvetica Neue',Arial,sans-serif" font-size="9" fill="#666666">Collection · Comment · Rating</text><rect x="370" y="294" width="220" height="46" rx="4" fill="#eaf7ea" stroke="#2b6cb0" stroke-width="1.2"/>
<text x="480" y="312" text-anchor="middle" font-family="'Helvetica Neue',Arial,sans-serif" font-size="11" font-weight="bold" fill="#333333">🏆 Achievement</text>
<text x="480" y="326" text-anchor="middle" font-family="'Helvetica Neue',Arial,sans-serif" font-size="9" fill="#666666">Leaderboard · Rewards</text><rect x="610" y="294" width="220" height="46" rx="4" fill="#eaf7ea" stroke="#2b6cb0" stroke-width="1.2"/>
<text x="720" y="312" text-anchor="middle" font-family="'Helvetica Neue',Arial,sans-serif" font-size="11" font-weight="bold" fill="#333333">🔔 Notification</text>
<text x="720" y="326" text-anchor="middle" font-family="'Helvetica Neue',Arial,sans-serif" font-size="9" fill="#666666">Push · In-app</text><line x1="122" y1="274" x2="122" y2="292" stroke="#5cb85c" stroke-width="0.6" opacity="0.4"/><line x1="282" y1="274" x2="282" y2="292" stroke="#5cb85c" stroke-width="0.6" opacity="0.4"/><line x1="442" y1="274" x2="442" y2="292" stroke="#5cb85c" stroke-width="0.6" opacity="0.4"/><line x1="602" y1="274" x2="602" y2="292" stroke="#5cb85c" stroke-width="0.6" opacity="0.4"/><line x1="762" y1="274" x2="762" y2="292" stroke="#5cb85c" stroke-width="0.6" opacity="0.4"/><line x1="922" y1="274" x2="922" y2="292" stroke="#5cb85c" stroke-width="0.6" opacity="0.4"/><rect x="30" y="360" width="160" height="22" rx="3" fill="#f0f0f0" stroke="#4a90d9" stroke-width="0.8"/>
<text x="110" y="375" text-anchor="middle" font-family="'Helvetica Neue',Arial,sans-serif" font-size="9" font-weight="bold" fill="#2b6cb0">INFRASTRUCTURE</text><rect x="50" y="388" width="220" height="44" rx="4" fill="#f0f0f0" stroke="#2b6cb0" stroke-width="1.2"/>
<text x="160" y="406" text-anchor="middle" font-family="'Helvetica Neue',Arial,sans-serif" font-size="11" font-weight="bold" fill="#333333">MySQL 8</text>
<text x="160" y="420" text-anchor="middle" font-family="'Helvetica Neue',Arial,sans-serif" font-size="9" fill="#666666">Relational DB · Master-Slave</text><rect x="300" y="388" width="220" height="44" rx="4" fill="#f0f0f0" stroke="#2b6cb0" stroke-width="1.2"/>
<text x="410" y="406" text-anchor="middle" font-family="'Helvetica Neue',Arial,sans-serif" font-size="11" font-weight="bold" fill="#333333">Redis 7</text>
<text x="410" y="420" text-anchor="middle" font-family="'Helvetica Neue',Arial,sans-serif" font-size="9" fill="#666666">Cache · Queue · Session</text><rect x="550" y="388" width="220" height="44" rx="4" fill="#f0f0f0" stroke="#2b6cb0" stroke-width="1.2"/>
<text x="660" y="406" text-anchor="middle" font-family="'Helvetica Neue',Arial,sans-serif" font-size="11" font-weight="bold" fill="#333333">MinIO</text>
<text x="660" y="420" text-anchor="middle" font-family="'Helvetica Neue',Arial,sans-serif" font-size="9" fill="#666666">Object Storage</text><rect x="800" y="388" width="220" height="44" rx="4" fill="#f0f0f0" stroke="#2b6cb0" stroke-width="1.2"/>
<text x="910" y="406" text-anchor="middle" font-family="'Helvetica Neue',Arial,sans-serif" font-size="11" font-weight="bold" fill="#333333">BullMQ</text>
<text x="910" y="420" text-anchor="middle" font-family="'Helvetica Neue',Arial,sans-serif" font-size="9" fill="#666666">Async Task Queue</text><line x1="122" y1="340" x2="122" y2="386" stroke="#888888" stroke-width="0.6" opacity="0.3" stroke-dasharray="3,3"/>
<line x1="442" y1="340" x2="442" y2="386" stroke="#888888" stroke-width="0.6" opacity="0.3" stroke-dasharray="3,3"/>
<line x1="650" y1="340" x2="650" y2="386" stroke="#888888" stroke-width="0.6" opacity="0.3" stroke-dasharray="3,3"/>
<line x1="922" y1="340" x2="922" y2="386" stroke="#888888" stroke-width="0.6" opacity="0.3" stroke-dasharray="3,3"/><rect x="30" y="455" width="160" height="22" rx="3" fill="#f0edf6" stroke="#4a90d9" stroke-width="0.8"/>
<text x="110" y="470" text-anchor="middle" font-family="'Helvetica Neue',Arial,sans-serif" font-size="9" font-weight="bold" fill="#2b6cb0">AI MODELS</text><rect x="60" y="483" width="280" height="40" rx="4" fill="#f0edf6" stroke="#2b6cb0" stroke-width="1.2"/>
<text x="200" y="501" text-anchor="middle" font-family="'Helvetica Neue',Arial,sans-serif" font-size="11" font-weight="bold" fill="#333333">OpenAI GPT-4o</text>
<text x="200" y="515" text-anchor="middle" font-family="'Helvetica Neue',Arial,sans-serif" font-size="9" fill="#666666">gpt-4-turbo · gpt-4o</text><rect x="370" y="483" width="280" height="40" rx="4" fill="#f0edf6" stroke="#2b6cb0" stroke-width="1.2"/>
<text x="510" y="501" text-anchor="middle" font-family="'Helvetica Neue',Arial,sans-serif" font-size="11" font-weight="bold" fill="#333333">Anthropic Claude</text>
<text x="510" y="515" text-anchor="middle" font-family="'Helvetica Neue',Arial,sans-serif" font-size="9" fill="#666666">claude-3-opus · claude-3-sonnet</text><rect x="680" y="483" width="280" height="40" rx="4" fill="#f0edf6" stroke="#2b6cb0" stroke-width="1.2"/>
<text x="820" y="501" text-anchor="middle" font-family="'Helvetica Neue',Arial,sans-serif" font-size="11" font-weight="bold" fill="#333333">DeepSeek</text>
<text x="820" y="515" text-anchor="middle" font-family="'Helvetica Neue',Arial,sans-serif" font-size="9" fill="#666666">deepseek-chat</text><line x1="282" y1="274" x2="282" y2="481" stroke="#7b5ea7" stroke-width="0.6" opacity="0.25" stroke-dasharray="4,4"/>
<line x1="762" y1="274" x2="762" y2="481" stroke="#7b5ea7" stroke-width="0.6" opacity="0.25" stroke-dasharray="4,4"/>
<line x1="922" y1="274" x2="922" y2="481" stroke="#7b5ea7" stroke-width="0.6" opacity="0.25" stroke-dasharray="4,4"/><rect x="50" y="555" width="500" height="95" rx="4" fill="#f0f0f0" stroke="#d0d0d0" stroke-width="0.8"/>
<text x="60" y="572" font-family="'Helvetica Neue',Arial,sans-serif" font-size="9" font-weight="bold" fill="#333333">Legend 图例</text>
<rect x="60" y="582" width="12" height="12" rx="2" fill="#e8f0fe" stroke="#4a90d9" stroke-width="0.8"/><text x="78" y="593" font-family="'Helvetica Neue',Arial,sans-serif" font-size="8" fill="#666666">User / Gateway Layer</text>
<rect x="200" y="582" width="12" height="12" rx="2" fill="#eaf7ea" stroke="#5cb85c" stroke-width="0.8"/><text x="218" y="593" font-family="'Helvetica Neue',Arial,sans-serif" font-size="8" fill="#666666">Business Services</text>
<rect x="340" y="582" width="12" height="12" rx="2" fill="#f0edf6" stroke="#7b5ea7" stroke-width="0.8"/><text x="358" y="593" font-family="'Helvetica Neue',Arial,sans-serif" font-size="8" fill="#666666">AI Models</text>
<rect x="60" y="600" width="12" height="12" rx="2" fill="#fef5e7" stroke="#f0ad4e" stroke-width="0.8"/><text x="78" y="611" font-family="'Helvetica Neue',Arial,sans-serif" font-size="8" fill="#666666">Gateway / Middleware</text>
<rect x="200" y="600" width="12" height="12" rx="2" fill="#f0f0f0" stroke="#888888" stroke-width="0.8"/><text x="218" y="611" font-family="'Helvetica Neue',Arial,sans-serif" font-size="8" fill="#666666">Infrastructure</text>
<text x="60" y="640" font-family="'Helvetica Neue',Arial,sans-serif" font-size="8" fill="#888888">Arrows indicate data flow direction. Dashed lines indicate async/event-driven communication.</text><rect x="600" y="555" width="440" height="95" rx="4" fill="#f0f0f0" stroke="#d0d0d0" stroke-width="0.8"/>
<text x="610" y="572" font-family="'Helvetica Neue',Arial,sans-serif" font-size="9" font-weight="bold" fill="#333333">Monorepo Structure (pnpm workspace)</text>
<text x="610" y="590" font-family="'Courier New',monospace" font-size="8" fill="#666666">ai-script-game/</text>
<text x="625" y="604" font-family="'Courier New',monospace" font-size="8" fill="#4a90d9">├── apps/user-portal</text>
<text x="625" y="616" font-family="'Courier New',monospace" font-size="8" fill="#4a90d9">├── apps/admin-portal</text>
<text x="625" y="628" font-family="'Courier New',monospace" font-size="8" fill="#5cb85c">├── packages/shared, api-client, ui-theme</text>
<text x="625" y="640" font-family="'Courier New',monospace" font-size="8" fill="#7b5ea7">├── server (NestJS)</text>
<text x="625" y="652" font-family="'Courier New',monospace" font-size="8" fill="#888888">└── docker/ (MySQL + Redis + MinIO)</text><rect x="50" y="670" width="1000" height="50" rx="4" fill="#f0f0f0" stroke="#d0d0d0" stroke-width="0.8"/>
<text x="550" y="688" text-anchor="middle" font-family="'Helvetica Neue',Arial,sans-serif" font-size="9" font-weight="bold" fill="#333333">Technology Stack 技术栈</text>
<text x="80" y="706" font-family="'Courier New',monospace" font-size="8" fill="#666666">Frontend: React 18 · Vue 3 · TypeScript · Vite · TailwindCSS · Zustand · Pinia · Framer Motion</text>
<text x="80" y="718" font-family="'Courier New',monospace" font-size="8" fill="#666666">Backend:  NestJS · TypeORM · JWT · Socket.IO · BullMQ · Swagger</text>
<text x="80" y="730" font-family="'Courier New',monospace" font-size="8" fill="#666666">Database: MySQL 8 · Redis 7 · MinIO · Docker Compose</text>
<text x="80" y="742" font-family="'Courier New',monospace" font-size="8" fill="#666666">AI:      OpenAI · Anthropic · DeepSeek (pluggable providers)</text><text x="550" y="808" text-anchor="middle" font-family="'Helvetica Neue',Arial,sans-serif" font-size="8" fill="#888888">AI-SCRIPT-GAME · Paper-style Architecture Diagram</text></svg>